# xmcd
#
# Track frame offsets: 
#        150
#        24194
#        53108
#        78823
#        101370
#        113702
#        146688
#        170214
#        204585
#        237776
#        264452
#        298778
#
# Disc length: 4389 seconds
#
# Revision: 3
# Processed by: cddbd v1.5.2PL0 Copyright (c) Steve Scherf et al.
# Submitted via: ExactAudioCopy v1.0b4
#
DISCID=a011230c
DTITLE=Gallagher, Rory - The Beat Club Sessions
DYEAR=2010
DGENRE=Blues
TTITLE0=Laundromat
TTITLE1=Hands Up
TTITLE2=Sinner Boy
TTITLE3=Just The Smile
TTITLE4=I Don't Know Where I'm Going
TTITLE5=I Could've Had Religion
TTITLE6=Used To Be
TTITLE7=In Your Town
TTITLE8=Should've Learnt My Lesson
TTITLE9=Crest Of A Wave
TTITLE10=Toredown
TTITLE11=Messin' With The Kid
EXTD=YEAR: 2010
EXTT0=
EXTT1=
EXTT2=
EXTT3=
EXTT4=
EXTT5=
EXTT6=
EXTT7=
EXTT8=
EXTT9=
EXTT10=
EXTT11=
PLAYORDER=
